<svg xmlns="http://www.w3.org/2000/svg" width="1145" height="770" viewBox="0 0 1145 770" role="img" aria-label="Forseti terminal UI, home view">
<rect width="100%" height="100%" rx="10" fill="#0d0c0c"/>
<rect x="18" y="34" width="1108.8" height="700.0" fill="rgb(24,22,22)"/>
<circle cx="24" cy="18" r="6" fill="#ff5f57"/><circle cx="44" cy="18" r="6" fill="#febc2e"/><circle cx="64" cy="18" r="6" fill="#28c840"/>
<g font-family="ui-monospace, SFMono-Regular, Menlo, Consolas, monospace" font-size="14" xml:space="preserve">
<text x="34.8" y="86.0" fill="rgb(139,164,176)" font-weight="600">◆ forseti</text>
<rect x="127.2" y="72.0" width="50.4" height="20" fill="rgb(139,164,176)"/>
<text x="127.2" y="86.0" fill="rgb(24,22,22)" font-weight="600"> Home </text>
<text x="186.0" y="86.0" fill="rgb(166,166,156)"> Live </text>
<text x="244.8" y="86.0" fill="rgb(166,166,156)"> Models </text>
<text x="320.4" y="86.0" fill="rgb(166,166,156)"> Tests </text>
<text x="387.6" y="86.0" fill="rgb(166,166,156)"> Runs </text>
<text x="446.4" y="86.0" fill="rgb(166,166,156)"> Settings </text>
<text x="866.4" y="86.0" fill="rgb(115,124,115)">2 models · 31 tests · 2 tries</text>
<text x="34.8" y="106.0" fill="rgb(115,124,115)">────────────────────────────────────────────────────────────────────────────────────────────────────────────────────────────────</text>
<text x="34.8" y="126.0" fill="rgb(115,124,115)">╭─ </text>
<text x="60.0" y="126.0" fill="rgb(139,164,176)" font-weight="600">Leaderboard</text>
<text x="152.4" y="126.0" fill="rgb(115,124,115)"> ───────────────────────────────────────────────────────────────────────────────────────────</text>
<text x="933.6" y="126.0" fill="rgb(166,166,156)">L for the full page</text>
<text x="1101.6" y="126.0" fill="rgb(115,124,115)">╮</text>
<text x="34.8" y="146.0" fill="rgb(115,124,115)">│</text>
<text x="51.6" y="146.0" fill="rgb(166,166,156)">3 models · 31 tasks · 2 tries each</text>
<text x="337.2" y="146.0" fill="rgb(196,178,138)"> · different harnesses, so each gap includes the harness</text>
<text x="1101.6" y="146.0" fill="rgb(115,124,115)">│</text>
<text x="34.8" y="166.0" fill="rgb(115,124,115)">│</text>
<text x="1101.6" y="166.0" fill="rgb(115,124,115)">│</text>
<text x="34.8" y="186.0" fill="rgb(115,124,115)">│</text>
<text x="51.6" y="186.0" fill="rgb(197,201,197)" font-weight="600">Overall</text>
<text x="1101.6" y="186.0" fill="rgb(115,124,115)">│</text>
<text x="34.8" y="206.0" fill="rgb(115,124,115)">│</text>
<text x="51.6" y="206.0" fill="rgb(166,166,156)"> 1</text>
<text x="68.4" y="206.0" fill="rgb(197,201,197)">  Claude Sonnet 5.5                 </text>
<text x="370.8" y="206.0" fill="rgb(139,164,176)">███████████████████████████▉░░</text>
<text x="631.2" y="206.0" fill="rgb(197,201,197)" font-weight="600"> 93%</text>
<text x="664.8" y="206.0" fill="rgb(115,124,115)"> ±8</text>
<text x="690.0" y="206.0" fill="rgb(115,124,115)"> 27/31</text>
<text x="1101.6" y="206.0" fill="rgb(115,124,115)">│</text>
<text x="34.8" y="226.0" fill="rgb(115,124,115)">│</text>
<text x="51.6" y="226.0" fill="rgb(166,166,156)"> 2</text>
<text x="68.4" y="226.0" fill="rgb(197,201,197)">  Swift-Qwen3.8-27B-Q4_K_S · local  </text>
<text x="370.8" y="226.0" fill="rgb(137,146,167)">██████████████████░░░░░░░░░░░░</text>
<text x="631.2" y="226.0" fill="rgb(197,201,197)" font-weight="600"> 60%</text>
<text x="664.8" y="226.0" fill="rgb(115,124,115)"> ±11</text>
<text x="698.4" y="226.0" fill="rgb(115,124,115)"> 27/31</text>
<text x="1101.6" y="226.0" fill="rgb(115,124,115)">│</text>
<text x="34.8" y="246.0" fill="rgb(115,124,115)">│</text>
<text x="51.6" y="246.0" fill="rgb(166,166,156)"> 2</text>
<text x="68.4" y="246.0" fill="rgb(197,201,197)">  Claude Haiku 4.5                  </text>
<text x="370.8" y="246.0" fill="rgb(135,169,135)">█████████████▌░░░░░░░░░░░░░░░░</text>
<text x="631.2" y="246.0" fill="rgb(197,201,197)" font-weight="600"> 45%</text>
<text x="664.8" y="246.0" fill="rgb(115,124,115)"> ±7</text>
<text x="690.0" y="246.0" fill="rgb(115,124,115)"> 27/31</text>
<text x="1101.6" y="246.0" fill="rgb(115,124,115)">│</text>
<text x="34.8" y="266.0" fill="rgb(115,124,115)">│</text>
<text x="51.6" y="266.0" fill="rgb(197,201,197)" font-weight="600">Basic</text>
<text x="93.6" y="266.0" fill="rgb(115,124,115)"> · 11 tasks</text>
<text x="1101.6" y="266.0" fill="rgb(115,124,115)">│</text>
<text x="34.8" y="286.0" fill="rgb(115,124,115)">│</text>
<text x="43.2" y="286.0" fill="rgb(197,201,197)">     Claude Sonnet 5.5                 </text>
<text x="370.8" y="286.0" fill="rgb(139,164,176)">████████████████████████████▌░</text>
<text x="631.2" y="286.0" fill="rgb(197,201,197)" font-weight="600"> 95%</text>
<text x="664.8" y="286.0" fill="rgb(115,124,115)"> 10/11</text>
<text x="1101.6" y="286.0" fill="rgb(115,124,115)">│</text>
<text x="34.8" y="306.0" fill="rgb(115,124,115)">│</text>
<text x="43.2" y="306.0" fill="rgb(197,201,197)">     Swift-Qwen3.8-27B-Q4_K_S · local  </text>
<text x="370.8" y="306.0" fill="rgb(137,146,167)">███████████████████████████░░░</text>
<text x="631.2" y="306.0" fill="rgb(197,201,197)" font-weight="600"> 90%</text>
<text x="664.8" y="306.0" fill="rgb(115,124,115)"> 10/11</text>
<text x="1101.6" y="306.0" fill="rgb(115,124,115)">│</text>
<text x="34.8" y="326.0" fill="rgb(115,124,115)">│</text>
<text x="43.2" y="326.0" fill="rgb(197,201,197)">     Claude Haiku 4.5                  </text>
<text x="370.8" y="326.0" fill="rgb(135,169,135)">█████████████████████████▌░░░░</text>
<text x="631.2" y="326.0" fill="rgb(197,201,197)" font-weight="600"> 85%</text>
<text x="664.8" y="326.0" fill="rgb(115,124,115)"> 10/11</text>
<text x="1101.6" y="326.0" fill="rgb(115,124,115)">│</text>
<text x="34.8" y="346.0" fill="rgb(115,124,115)">│</text>
<text x="51.6" y="346.0" fill="rgb(197,201,197)" font-weight="600">Standard</text>
<text x="118.8" y="346.0" fill="rgb(115,124,115)"> · 14 tasks</text>
<text x="1101.6" y="346.0" fill="rgb(115,124,115)">│</text>
<text x="34.8" y="366.0" fill="rgb(115,124,115)">│</text>
<text x="43.2" y="366.0" fill="rgb(197,201,197)">     Claude Sonnet 5.5                 </text>
<text x="370.8" y="366.0" fill="rgb(139,164,176)">██████████████████████████████</text>
<text x="631.2" y="366.0" fill="rgb(197,201,197)" font-weight="600">100%</text>
<text x="1101.6" y="366.0" fill="rgb(115,124,115)">│</text>
<text x="34.8" y="386.0" fill="rgb(115,124,115)">│</text>
<text x="43.2" y="386.0" fill="rgb(197,201,197)">     Swift-Qwen3.8-27B-Q4_K_S · local  </text>
<text x="370.8" y="386.0" fill="rgb(137,146,167)">█████████████████▏░░░░░░░░░░░░</text>
<text x="631.2" y="386.0" fill="rgb(197,201,197)" font-weight="600"> 57%</text>
<text x="1101.6" y="386.0" fill="rgb(115,124,115)">│</text>
<text x="34.8" y="406.0" fill="rgb(115,124,115)">│</text>
<text x="43.2" y="406.0" fill="rgb(197,201,197)">     Claude Haiku 4.5                  </text>
<text x="370.8" y="406.0" fill="rgb(135,169,135)">███████████████░░░░░░░░░░░░░░░</text>
<text x="631.2" y="406.0" fill="rgb(197,201,197)" font-weight="600"> 50%</text>
<text x="1101.6" y="406.0" fill="rgb(115,124,115)">│</text>
<text x="34.8" y="426.0" fill="rgb(115,124,115)">│</text>
<text x="51.6" y="426.0" fill="rgb(197,201,197)" font-weight="600">Hard</text>
<text x="85.2" y="426.0" fill="rgb(115,124,115)"> · 6 tasks</text>
<text x="1101.6" y="426.0" fill="rgb(115,124,115)">│</text>
<text x="34.8" y="446.0" fill="rgb(115,124,115)">│</text>
<text x="43.2" y="446.0" fill="rgb(197,201,197)">     Claude Sonnet 5.5                 </text>
<text x="370.8" y="446.0" fill="rgb(139,164,176)">█████████████████████████░░░░░</text>
<text x="631.2" y="446.0" fill="rgb(197,201,197)" font-weight="600"> 83%</text>
<text x="664.8" y="446.0" fill="rgb(115,124,115)"> 3/6</text>
<text x="1101.6" y="446.0" fill="rgb(115,124,115)">│</text>
<text x="34.8" y="466.0" fill="rgb(115,124,115)">│</text>
<text x="43.2" y="466.0" fill="rgb(197,201,197)">     Swift-Qwen3.8-27B-Q4_K_S · local  </text>
<text x="370.8" y="466.0" fill="rgb(137,146,167)">██████████░░░░░░░░░░░░░░░░░░░░</text>
<text x="631.2" y="466.0" fill="rgb(197,201,197)" font-weight="600"> 33%</text>
<text x="664.8" y="466.0" fill="rgb(115,124,115)"> 3/6</text>
<text x="1101.6" y="466.0" fill="rgb(115,124,115)">│</text>
<text x="34.8" y="486.0" fill="rgb(115,124,115)">│</text>
<text x="43.2" y="486.0" fill="rgb(197,201,197)">     Claude Haiku 4.5                  </text>
<text x="370.8" y="486.0" fill="rgb(135,169,135)">░░░░░░░░░░░░░░░░░░░░░░░░░░░░░░</text>
<text x="631.2" y="486.0" fill="rgb(197,201,197)" font-weight="600">  0%</text>
<text x="664.8" y="486.0" fill="rgb(115,124,115)"> 3/6</text>
<text x="1101.6" y="486.0" fill="rgb(115,124,115)">│</text>
<text x="34.8" y="506.0" fill="rgb(115,124,115)">╰──────────────────────────────────────────────────────────────────────────────────────────────────────────────────────────────╯</text>
<text x="34.8" y="546.0" fill="rgb(115,124,115)">╭─ </text>
<text x="60.0" y="546.0" fill="rgb(139,164,176)" font-weight="600">Next run</text>
<text x="127.2" y="546.0" fill="rgb(115,124,115)"> ──────────────────────────────────────────────────────────────────────────────────────────────────────</text>
<text x="1000.8" y="546.0" fill="rgb(166,166,156)">r to review</text>
<text x="1101.6" y="546.0" fill="rgb(115,124,115)">╮</text>
<text x="34.8" y="566.0" fill="rgb(115,124,115)">│</text>
<text x="51.6" y="566.0" fill="rgb(166,166,156)">2 models × 31 tests × 2 tries · tools lane · 180s · 12 turns · cache on · 4 at once           </text>
<text x="1101.6" y="566.0" fill="rgb(115,124,115)">│</text>
<text x="34.8" y="586.0" fill="rgb(115,124,115)">│</text>
<text x="51.6" y="586.0" fill="rgb(115,124,115)">Tries already on record under the same conditions are skipped.                                </text>
<text x="1101.6" y="586.0" fill="rgb(115,124,115)">│</text>
<text x="34.8" y="606.0" fill="rgb(115,124,115)">│</text>
<text x="51.6" y="606.0" fill="rgb(142,164,162)">Subscription logins only (3 call sites). No API key will be used.</text>
<text x="1101.6" y="606.0" fill="rgb(115,124,115)">│</text>
<text x="34.8" y="626.0" fill="rgb(115,124,115)">╰──────────────────────────────────────────────────────────────────────────────────────────────────────────────────────────────╯</text>
<text x="34.8" y="666.0" fill="rgb(115,124,115)">╭─ </text>
<text x="60.0" y="666.0" fill="rgb(139,164,176)" font-weight="600">Last run</text>
<text x="127.2" y="666.0" fill="rgb(115,124,115)"> ──────────────────────────────────────────────────────────────────────────────────────────────────</text>
<text x="967.2" y="666.0" fill="rgb(166,166,156)">5 for every run</text>
<text x="1101.6" y="666.0" fill="rgb(115,124,115)">╮</text>
<text x="34.8" y="686.0" fill="rgb(115,124,115)">│</text>
<text x="51.6" y="686.0" fill="rgb(115,124,115)">09-29 19:30</text>
<text x="144.0" y="686.0" fill="rgb(197,201,197)">  Claude Sonnet 5.5 </text>
<text x="312.0" y="686.0" fill="rgb(196,178,138)">67%</text>
<text x="337.2" y="686.0" fill="rgb(115,124,115)"> · </text>
<text x="362.4" y="686.0" fill="rgb(197,201,197)">Claude Haiku 4.5 </text>
<text x="505.2" y="686.0" fill="rgb(196,116,110)">33%</text>
<text x="547.2" y="686.0" fill="rgb(115,124,115)">3×1</text>
<text x="1101.6" y="686.0" fill="rgb(115,124,115)">│</text>
<text x="34.8" y="706.0" fill="rgb(115,124,115)">╰──────────────────────────────────────────────────────────────────────────────────────────────────────────────────────────────╯</text>
<text x="34.8" y="726.0" fill="rgb(115,124,115)">────────────────────────────────────────────────────────────────────────────────────────────────────────────────────────────────</text>
<text x="34.8" y="746.0" fill="rgb(139,164,176)">r</text>
<text x="51.6" y="746.0" fill="rgb(115,124,115)">run</text>
<text x="102.0" y="746.0" fill="rgb(139,164,176)">− +</text>
<text x="135.6" y="746.0" fill="rgb(115,124,115)">tries</text>
<text x="202.8" y="746.0" fill="rgb(139,164,176)">l</text>
<text x="219.6" y="746.0" fill="rgb(115,124,115)">lane</text>
<text x="278.4" y="746.0" fill="rgb(139,164,176)">t</text>
<text x="295.2" y="746.0" fill="rgb(115,124,115)">limit</text>
<text x="362.4" y="746.0" fill="rgb(139,164,176)">T</text>
<text x="379.2" y="746.0" fill="rgb(115,124,115)">turns</text>
<text x="446.4" y="746.0" fill="rgb(139,164,176)">p</text>
<text x="463.2" y="746.0" fill="rgb(115,124,115)">cache</text>
<text x="530.4" y="746.0" fill="rgb(139,164,176)">P</text>
<text x="547.2" y="746.0" fill="rgb(115,124,115)">at once</text>
<text x="933.6" y="746.0" fill="rgb(139,164,176)">?</text>
<text x="950.4" y="746.0" fill="rgb(115,124,115)">keys</text>
<text x="1009.2" y="746.0" fill="rgb(139,164,176)">esc · q</text>
<text x="1076.4" y="746.0" fill="rgb(115,124,115)">quit</text>
</g>
</svg>
